<?xml version="1.0" encoding="utf-8"?>
<!-- Generator: Adobe Illustrator 26.4.1, SVG Export Plug-In . SVG Version: 6.00 Build 0)  -->
<svg version="1.1" id="Layer_1" xmlns="http://www.w3.org/2000/svg" xmlns:xlink="http://www.w3.org/1999/xlink" x="0px" y="0px"
	 viewBox="0 0 160 160" style="enable-background:new 0 0 160 160;" xml:space="preserve">
<style type="text/css">
	.st0{fill:#DB1F26;}
	.st1{fill:#640E0E;}
	.st2{font-family:'CrimsonPro-Medium';}
	.st3{font-size:48.3902px;}
</style>
<g>
	<g>
		<circle class="st0" cx="80" cy="80" r="80"/>
		<path class="st1" d="M69.7,100.3l16.3-34c0.5-1,1.2-1.5,2.2-1.5c1.3,0,2.5,1.1,2.5,2.4c0,0.5-0.2,0.9-0.3,1.2l-16.3,34
			c-0.5,1-1.2,1.5-2.2,1.5c-1.3,0-2.5-1.1-2.5-2.4C69.4,101.1,69.6,100.6,69.7,100.3z"/>
		<path class="st1" d="M136.1,41.4c0-2.2-1.8-3.9-3.9-3.9H27.5c-2.2,0-3.9,1.8-3.9,3.9v77.2c0,2.2,1.8,3.9,3.9,3.9h104.7
			c2.2,0,3.9-1.8,3.9-3.9V41.4z M49.1,41.2c1.6,0,2.8,1.3,2.8,2.8c0,1.6-1.3,2.8-2.8,2.8s-2.8-1.3-2.8-2.8
			C46.2,42.4,47.5,41.2,49.1,41.2z M41.2,41.2c1.6,0,2.8,1.3,2.8,2.8c0,1.6-1.3,2.8-2.8,2.8s-2.8-1.3-2.8-2.8
			C38.4,42.4,39.6,41.2,41.2,41.2z M33.4,41.2c1.6,0,2.8,1.3,2.8,2.8c0,1.6-1.3,2.8-2.8,2.8s-2.8-1.3-2.8-2.8
			C30.5,42.4,31.8,41.2,33.4,41.2z M130.8,117.3H28.8V51.9h102.1V117.3z"/>
		<text transform="matrix(1 0 0 1 43.5449 100.7422)" class="st1 st2 st3">P</text>
		<text transform="matrix(1 0 0 1 93.4766 100.7412)" class="st1 st2 st3">E</text>
	</g>
</g>
</svg>
