<?xml version="1.0" encoding="utf-8"?>
<!-- Generator: Adobe Illustrator 26.4.1, SVG Export Plug-In . SVG Version: 6.00 Build 0)  -->
<svg version="1.1" id="o-0" xmlns:svgjs="http://svgjs.dev/svgjs"
	 xmlns="http://www.w3.org/2000/svg" xmlns:xlink="http://www.w3.org/1999/xlink" x="0px" y="0px" viewBox="0 0 1000 1000"
	 style="enable-background:new 0 0 1000 1000;" xml:space="preserve">
<style type="text/css">
	.st0{fill:#DD0000;}
	.st1{fill:#660000;}
	.st2{display:none;fill:#660000;}
	.st3{display:none;fill:none;}
</style>
<symbol  id="Project_Ember_Logo" viewBox="-205 -205 410 410">
	<circle class="st0" cx="0" cy="0" r="205"/>
	<path class="st1" d="M-26.5-52.1L15.3,35c1.2,2.5,3.1,3.7,5.7,3.7c3.4,0,6.3-2.9,6.3-6.1c0-1.2-0.4-2.3-0.7-3.1l-41.7-87.1
		c-1.2-2.5-3.1-3.7-5.7-3.7c-3.4,0-6.3,2.9-6.3,6.1C-27.2-54.1-26.8-52.9-26.5-52.1z"/>
	<path class="st1" d="M143.7,98.9c0,5.6-4.5,10.1-10.1,10.1h-268.3c-5.6,0-10.1-4.5-10.1-10.1V-98.9c0-5.6,4.5-10.1,10.1-10.1h268.3
		c5.6,0,10.1,4.5,10.1,10.1V98.9z M-79.3,99.5c4,0,7.3-3.3,7.3-7.3s-3.3-7.3-7.3-7.3c-4,0-7.3,3.3-7.3,7.3S-83.3,99.5-79.3,99.5z
		 M-99.4,99.5c4,0,7.3-3.3,7.3-7.3s-3.3-7.3-7.3-7.3s-7.3,3.3-7.3,7.3S-103.4,99.5-99.4,99.5z M-119.5,99.5c4,0,7.3-3.3,7.3-7.3
		s-3.3-7.3-7.3-7.3s-7.3,3.3-7.3,7.3S-123.5,99.5-119.5,99.5z M130.3-95.6h-261.6V72.1h261.6V-95.6z"/>
	<text transform="matrix(1 0 0 -1 -93.4155 -53.1499)" class="st1" style="font-family:'CrimsonPro-Medium'; font-size:124px;">P</text>
	<text transform="matrix(1 0 0 -1 34.5342 -53.1494)" class="st1" style="font-family:'CrimsonPro-Medium'; font-size:124px;">E</text>
</symbol>
<path class="st2" d="M453.9,535.8l-35.9-17.1c-4.1-1.9-6.5-4.9-6.5-9.1v-1.1c0-4.2,2.5-7.1,6.5-9.1l35.9-17.1
	c1.3-0.6,2.5-1.1,3.9-1.1c3.4-0.1,6.5,2.9,6.5,6.7c0,3.1-1.7,5.2-4.5,6.5L427.6,509l32.2,14.4c2.8,1.3,4.5,3.7,4.5,6.7
	c0,3.9-3.1,6.7-7,6.6C456.1,536.7,454.9,536.3,453.9,535.8z"/>
<path class="st2" d="M548.8,482.5l35.9,17.1c4.1,1.9,6.5,4.9,6.5,9.1v1.1c0,4.2-2.5,7.1-6.5,9.1l-35.9,17.1
	c-1.3,0.6-2.5,1.1-3.9,1.1c-3.4,0.1-6.5-2.9-6.5-6.7c0-3.1,1.7-5.2,4.5-6.5l32.2-14.4l-32.2-14.4c-2.8-1.3-4.5-3.7-4.5-6.7
	c0-3.9,3.1-6.7,7-6.6C546.6,481.5,547.7,481.9,548.8,482.5z"/>
<rect x="150" y="150" class="st3" width="699.3" height="699.3"/>
<use xlink:href="#Project_Ember_Logo"  width="410" height="410" x="-205" y="-205" transform="matrix(2.439 0 0 -2.439 500 500)" style="overflow:visible;"/>
</svg>
